<svg xmlns="http://www.w3.org/2000/svg" viewBox="0 0 128 128">
  <!-- Car body (lower) -->
  <rect x="8" y="68" width="112" height="28" rx="12" fill="#CC2828"/>
  <!-- Car cabin (upper, rounded) -->
  <path d="M 26 68 Q 30 36 50 28 L 80 28 Q 100 36 102 68 Z" fill="#DD3838"/>
  <!-- Windows -->
  <path d="M 34 66 Q 36 44 50 36 L 64 36 L 64 66 Z" fill="#A8D8F8" opacity="0.90"/>
  <path d="M 64 36 L 80 36 Q 92 44 94 66 L 64 66 Z" fill="#A8D8F8" opacity="0.90"/>
  <!-- Window divider -->
  <line x1="64" y1="36" x2="64" y2="66" stroke="#CC2828" stroke-width="4"/>
  <!-- Headlight -->
  <ellipse cx="116" cy="76" rx="8" ry="6" fill="#FFFFA0"/>
  <!-- Taillight -->
  <ellipse cx="12" cy="76" rx="7" ry="5" fill="#FF3322"/>
  <!-- Bumpers -->
  <rect x="100" y="78" width="20" height="10" rx="4" fill="#AA2020"/>
  <rect x="8" y="78" width="20" height="10" rx="4" fill="#AA2020"/>
  <!-- BIG WHEELS -->
  <circle cx="36" cy="94" r="22" fill="#222222"/>
  <circle cx="92" cy="94" r="22" fill="#222222"/>
  <circle cx="36" cy="94" r="14" fill="#444444"/>
  <circle cx="92" cy="94" r="14" fill="#444444"/>
  <circle cx="36" cy="94" r="6" fill="#888888"/>
  <circle cx="92" cy="94" r="6" fill="#888888"/>
</svg>
