<svg xmlns="http://www.w3.org/2000/svg" viewBox="0 0 128 128">
  <!-- Handle (thick, clear, angled) -->
  <rect x="16" y="72" width="30" height="52" rx="14" fill="#2A8ED0" transform="rotate(-35,31,98)"/>
  <rect x="20" y="74" width="14" height="48" rx="7" fill="#50B0E8" opacity="0.55" transform="rotate(-35,31,98)"/>
  <!-- Neck -->
  <rect x="46" y="38" width="18" height="42" rx="8" fill="#4098D8" transform="rotate(-35,55,59)"/>
  <!-- HEAD (white rectangle with bristles) -->
  <rect x="72" y="12" width="48" height="28" rx="8" fill="#FFFFFF" transform="rotate(-35,96,26)"/>
  <!-- Bristle tufts (clearly visible) -->
  <rect x="76" y="8" width="7" height="18" rx="3.5" fill="#EEEEEE" transform="rotate(-35,79.5,17)"/>
  <rect x="87" y="5" width="7" height="20" rx="3.5" fill="#FFFFFF" transform="rotate(-35,90.5,15)"/>
  <rect x="98" y="4" width="7" height="20" rx="3.5" fill="#EEEEEE" transform="rotate(-35,101.5,14)"/>
  <rect x="109" y="7" width="7" height="18" rx="3.5" fill="#FFFFFF" transform="rotate(-35,112.5,16)"/>
  <!-- Toothpaste stripe (green) -->
  <ellipse cx="94" cy="15" rx="20" ry="6" fill="#40D090" opacity="0.90" transform="rotate(-35,94,15)"/>
</svg>
